<svg version="1.2" xmlns="http://www.w3.org/2000/svg" viewBox="0 0 1280 1280" width="1280" height="1280"><style>.a{fill:#3f66ff}</style><path class="a" d="m965.4 421l-93.3 366.7q-15.3 61-10.3 84.3 5.5 23.1 23.2 23.1 13.2 0 26.3-7.3 13.3-8.6 33.3-27.4 12.6-11.4 20.7-13.9 8.4-3.6 16 0.1 8.9 4.4 8 16.4 0.4 11.4-8.4 28.5-26.7 48.9-77.1 78.8-49.7 28.5-102.5 28.5-43.5 0-65.5-21.8-20.7-21.8-20.7-63.6 0-17.4 2.7-37.6 3-21.7 9.7-52.5 8-31 21-76.5 14.2-47.1 35.4-114.9l14.2 25.8q-41.2 108.7-99.8 185.8-58.4 75.6-126.8 115.5-68.1 39.8-138.9 39.8-79.3 0-123.6-52.5-42.8-53.5-31.7-168.4 6.8-75.3 37.7-147.4 31.2-72.6 81.8-135.7 51.1-63.7 117-111 67-48.8 144.7-75.8 78.8-27.3 163.8-27.3 64.1 0 106.2 9.3 42.3 9.3 62.3 25.5 21.3 15.5 19.5 35.6-1.5 16.2-11.3 25.9-9 8.9-19.5 18.8-9.7 8.7-14.1 25.2zm-529.2 350q-7.2 77.3 12.3 109.3 20.3 30.8 57.2 30.8 34.2 0 72.6-26.3 39.1-27.5 78-75 39-48.5 72.7-110.3 34.3-63.1 59.3-135 25-72.1 35.9-147 6.5-38.7-5.9-55.5-11.3-18-37.9-18-46.9 0-94.1 24-46.4 23.7-89.3 66-41.7 42.2-76.5 96.8-34.2 54.3-56.2 116.2-22.1 61.3-28.1 124z"/></svg>